<?xml version="1.0" encoding="utf-8"?>
<!-- Generator: Adobe Illustrator 16.0.0, SVG Export Plug-In . SVG Version: 6.00 Build 0)  -->
<!DOCTYPE svg PUBLIC "-//W3C//DTD SVG 1.1//EN" "http://www.w3.org/Graphics/SVG/1.1/DTD/svg11.dtd">
<svg version="1.1" id="Layer_1" xmlns="http://www.w3.org/2000/svg" xmlns:xlink="http://www.w3.org/1999/xlink" x="0px" y="0px"
	 width="170px" height="300px" viewBox="0 0 170 300" enable-background="new 0 0 170 300" xml:space="preserve">
<g>
	<path fill-rule="evenodd" clip-rule="evenodd" fill="#6FC492" d="M169.748,300c-56.499,0-112.984,0-169.481,0
		c-0.011-14.295-0.03-28.588-0.04-42.883c56.523,0.006,113.049,0,169.57,0C169.771,271.412,169.771,285.705,169.748,300z"/>
	<path fill-rule="evenodd" clip-rule="evenodd" fill="#EE3624" d="M0.233,41.842C0.162,29.106,0.181,16.37-0.067,3.639
		C-0.127,0.662,0.983-0.003,4.18,0c53.884,0.081,107.773,0.081,161.652,0.003c3.177-0.006,4.287,0.662,4.233,3.63
		c-0.268,12.733-0.238,25.47-0.317,38.203C113.249,41.839,56.737,41.839,0.233,41.842z"/>
	<path fill-rule="evenodd" clip-rule="evenodd" fill="#F47621" d="M0.233,41.842c56.504-0.003,113.016-0.003,169.515-0.006
		c-1.258,11.229,1.149,22.462,0,33.692c-56.499,0-112.984,0-169.474,0C0.259,64.299,0.248,53.072,0.233,41.842z"/>
	<path fill-rule="evenodd" clip-rule="evenodd" fill="#FDE700" d="M0.274,135.763c0-10.553,0-21.101-0.007-31.651
		c56.497,0,112.982,0,169.481,0c0,10.55,0,21.098,0,31.651C113.249,135.763,56.764,135.763,0.274,135.763z"/>
	<path fill-rule="evenodd" clip-rule="evenodd" fill="#D3DE25" d="M0.274,135.763c56.49,0,112.975,0,169.474,0
		c0,10.541,0,21.089,0,31.631c-56.499,0-112.984,0-169.481,0C0.274,156.853,0.274,146.304,0.274,135.763z"/>
	<path fill-rule="evenodd" clip-rule="evenodd" fill="#A1CD3A" d="M0.267,167.395c56.497,0,112.982,0,169.481,0
		c0.01,10.54,0.023,21.081,0.023,31.63c-56.495,0-113.012,0-169.524,0C0.256,188.476,0.259,177.935,0.267,167.395z"/>
	<path fill-rule="evenodd" clip-rule="evenodd" fill="#75C044" d="M169.798,257.117c-56.521,0-113.047,0.006-169.57,0
		c0.01-10.524,0.032-21.047,0.046-31.577c56.49,0,112.975,0,169.474,0C169.758,236.07,169.771,246.593,169.798,257.117z"/>
	<path fill-rule="evenodd" clip-rule="evenodd" fill="#FCB017" d="M169.748,104.112c-56.499,0-112.984,0-169.481,0
		c0-9.53,0.007-19.054,0.007-28.583c56.49,0,112.975,0,169.474,0C169.748,85.058,169.748,94.582,169.748,104.112z"/>
	<path fill-rule="evenodd" clip-rule="evenodd" fill="#82C341" d="M169.748,225.54c-56.499,0-112.984,0-169.474,0
		c-0.015-8.839-0.018-17.679-0.026-26.516c56.512,0,113.029,0,169.524,0C169.771,207.861,169.758,216.701,169.748,225.54z"/>
</g>
<text transform="matrix(1 0 0 1 18.9878 27.2104)" fill="#FFFFFF" font-family="'MyriadPro-Regular'" font-size="21">HIGH REVENUE</text>
<text transform="matrix(1 0 0 1 63.4551 64.0156)" fill="#FFFFFF" font-family="'MyriadPro-Regular'" font-size="21">$$$$</text>
<text transform="matrix(1 0 0 1 79.6138 248.3906)" fill="#FFFFFF" font-family="'MyriadPro-Regular'" font-size="21">$</text>
<text transform="matrix(1 0 0 1 21.3081 287.2793)" fill="#FFFFFF" font-family="'MyriadPro-Regular'" font-size="21">LOW REVENUE</text>
</svg>
